<?xml version="1.0" encoding="UTF-8"?>
<!-- Generated by Pixelmator Pro 3.7.1 -->
<svg width="705" height="823" viewBox="0 0 705 823" xmlns="http://www.w3.org/2000/svg">
    <g id="-">
        <path id="path1" fill="#000000" stroke="none" d="M 352.333313 4.199951 C 352.333313 10.333374 343.799988 30.599976 328.06665 62.466675 C 309.266663 100.06665 303.93335 113.800049 300.866638 131.533325 C 295.533325 161.666626 305.266663 190.599976 327.400024 210.199951 L 335.533325 217.533325 L 336.06665 256.333374 C 336.466675 284.866699 336.200012 295 335.133362 295 C 334.333313 295 327.266663 290.733276 319.666687 285.666626 L 305.666687 276.333374 L 305.666687 265.800049 C 305.666687 243 297.799988 224.333374 281 207.533325 C 263.400024 189.93335 246.200012 182.599976 203.666687 174.333374 C 163 166.599976 147 163 137 159.533325 C 131.93335 157.666626 126.599976 155.93335 125.400024 155.533325 C 123.266663 154.733276 123.400024 155.666626 126.200012 163.800049 C 133.533325 185.533325 145.533325 211.400024 157 230.333374 C 185 276.599976 215.666687 299 251 299 C 260.466675 299 270.333313 297.400024 271.93335 295.800049 C 272.333313 295.400024 265.93335 288.06665 257.666687 279.400024 C 232.200012 252.733276 213 228.599976 215.266663 226.333374 C 217.400024 224.199951 251.666687 251.533325 328.733337 316.599976 L 335.133362 321.93335 L 334.333313 339.533325 C 333.266663 361.93335 329.799988 404.599976 329.133362 405.400024 C 328.733337 405.666687 322.866638 402.866638 316.06665 399.266663 C 291.400024 385.93335 264.200012 375.400024 236.200012 368.333313 C 182.466675 354.733337 120.06665 354.733337 72.333313 368.466675 C 36.466675 378.733337 8.866638 396.333313 6.200012 410.733337 C 4.466675 419.666687 9.533325 423.400024 18.599976 419.799988 C 67.533325 400.866638 93.266663 395.266663 137.666687 394.06665 C 158.599976 393.533325 169.533325 393.93335 184.333313 395.533325 C 241.266663 402.200012 293 422.733337 339 456.866638 C 345.93335 462.06665 352.466675 466.866638 353.400024 467.400024 C 354.599976 468.200012 358.200012 466.06665 364.466675 460.866638 C 386.06665 443.266663 421.266663 423.533325 450.333313 412.866638 C 466.866638 406.866638 493.666687 399.93335 513 396.733337 C 533.266724 393.400024 589.266724 393.400024 609.666626 396.733337 C 636.199951 401 665.666626 409.400024 687.400024 418.866638 C 695.400024 422.333313 697.93335 422.333313 700.733276 419.266663 C 704.06665 415.533325 703.400024 410.599976 698.733276 403.533325 C 693.266724 395.533325 684.333374 388.599976 669.666626 381.133362 C 627.400024 359.666687 563.400024 352.733337 499.666687 362.466675 C 467 367.533325 426.733337 381.133362 395.266663 397.666687 L 382.866638 404.200012 L 381.666687 400.866638 C 378.200012 391.799988 369.400024 352.466675 365.666687 329.266663 L 364.733337 322.733337 L 391.533325 300.466675 C 406.200012 288.199951 423.799988 273.400024 430.333313 267.800049 C 446.599976 253.800049 484.333313 225.266724 485.266663 226.199951 C 487.93335 228.866699 474.866638 245.800049 446.333313 276.333374 C 441.266663 281.800049 435.400024 287.93335 433.400024 289.93335 C 426.733337 296.466675 428.599976 297.666626 447 298.599976 C 461.533325 299.400024 471.666687 297.266724 485.266663 290.866699 C 518.333313 275.133301 550.733276 229.93335 573.133301 168.466675 C 575.666626 161.533325 577.400024 155.666626 577 155.266724 C 576.733276 154.866699 572.866699 156.199951 568.733276 158.06665 C 560.866699 161.533325 536.333374 167.266724 507.666687 172.333374 C 461.266663 180.466675 440.333313 188.466675 422.200012 204.866699 C 405.799988 219.666626 396.866638 239.266724 395.266663 263.533325 L 394.333313 277 L 379 287.266724 C 370.599976 293 363.266663 297.666626 362.866638 297.666626 C 361.266663 297.666626 360.466675 290.866699 358.466675 261.666626 C 353.93335 197.800049 351.93335 120.199951 354.733337 118.466675 C 358.466675 116.199951 365.799988 144.733276 373 189.666626 C 374.333313 197.400024 375.799988 204.199951 376.333313 204.733276 C 378.06665 206.733276 393 190.199951 397.93335 180.866699 C 405.266663 166.866699 407.533325 157 407.533325 138.333374 C 407.533325 115.133301 403 96.199951 390.866638 67.533325 C 384.200012 51.800049 371.400024 27.93335 362.06665 13.93335 C 353.799988 1.666626 352.333313 0.199951 352.333313 4.199951 Z"/>
        <path id="path2" fill="#000000" stroke="none" d="M 105 419.799988 C 79.93335 423 48.06665 432.333313 19.666687 444.733337 C 5.799988 450.866638 0.333344 453.666687 0.333344 454.733337 C 0.333344 458.733337 22.466675 485.266663 35.133362 496.599976 C 67.93335 525.666687 101.93335 539.93335 144.866638 542.599976 C 157.93335 543.400024 159 543.666687 159 546.06665 C 159 554.733337 163.400024 617.133362 165.133362 632.733337 C 167.400024 653.666687 170.333313 664.466675 178.06665 679.666687 C 190.333313 704.200012 208.866638 727.666687 239.93335 757.666687 C 276.200012 793 304.866638 813.400024 325.533325 819 C 333 821 366.866638 821.666687 376.333313 820.06665 C 398.06665 816.333313 428.333313 795.533325 468.200012 756.866638 C 497.93335 728.06665 517.400024 703.266663 529.533325 678.466675 C 539.93335 657.133362 541.400024 649.666687 544.866699 595.666687 C 546.06665 578.733337 547.266724 560.200012 547.800049 554.200012 L 548.599976 543.400024 L 562.199951 542.599976 C 586.866699 541 612.733276 534.200012 633.266724 523.799988 C 656.06665 512.333313 681.400024 490.06665 696.06665 468.733337 L 704.333374 456.599976 L 701 453.93335 C 695.666626 449.799988 675 439.400024 661.666626 434.333313 C 646.199951 428.333313 621.266724 422.333313 601.266724 419.666687 C 570.599976 415.799988 524.199951 417.666687 499.666687 423.799988 C 458.06665 434.333313 423 452.733337 402.866638 474.599976 C 394.466675 483.799988 391 490.06665 391 496.599976 C 391 501.400024 395.400024 507 399.133362 507 C 400.200012 507 407 503 414.333313 498.200012 C 442.866638 479.533325 476.599976 465.533325 511.93335 458.06665 C 527.666626 454.733337 531.400024 454.466675 559.666626 454.333313 C 592.466675 454.333313 599.800049 455.133362 625 461.666687 C 642.06665 466.06665 647 467.799988 647 469.533325 C 647 472.200012 628.06665 485 614.199951 491.93335 C 590.06665 503.666687 585.666626 504.466675 533 505.666687 C 494.06665 506.599976 486.466675 507.133362 478.866638 509.266663 C 462.333313 514.200012 454.466675 520.466675 450.200012 532.466675 C 444.599976 548.466675 442.466675 584.200012 446.333313 597.266663 C 448.866638 605.799988 453.93335 611 459.799988 611 C 464.733337 611 464.06665 612.866638 468.333313 588.333313 C 471.93335 567.533325 475.93335 552.333313 478.733337 548.333313 C 482.733337 542.866638 490.200012 540.200012 501.533325 539.93335 L 511.666687 539.666687 L 511.266663 550.333313 C 510.06665 582.200012 505.133362 639.799988 502.866638 647.666687 C 500.200012 657.133362 489.400024 676.599976 479.133362 690.200012 C 461.93335 713.133362 426.733337 747.666687 400.599976 767.400024 C 390.466675 775 376.200012 783 372.733337 783 C 371.400024 783 371 777 371 751.533325 L 371 720.06665 L 375 714.866638 C 385 702.466675 402.599976 692.866638 419 691.266663 C 426.866638 690.466675 427.666687 690.06665 428.866638 686.599976 C 434.866638 669.666687 399.799988 662.733337 372.599976 675.666687 C 367.400024 678.200012 360.866638 681.799988 358.333313 683.666687 L 353.799988 687.266663 L 348.06665 683.266663 C 333.133362 673 321.400024 669.266663 305 669.266663 C 292.733337 669.266663 285.133362 671.400024 280.06665 675.93335 C 277.666687 678.06665 276.733337 686.333313 278.733337 689.133362 C 279.266663 689.93335 283.666687 691 288.733337 691.400024 C 305 692.866638 320.200012 701.266663 331.400024 714.866638 L 336.333313 721 L 336.333313 751.93335 C 336.333313 779.266663 336.06665 783 334.200012 783 C 327.400024 783 305.533325 768.06665 282.200012 747.400024 C 238.866638 709 209 669.799988 203.133362 643.666687 C 201.799988 637.666687 197.666687 587.400024 195.666687 552.599976 L 194.866638 539 L 201.266663 539 C 210.333313 539 223.133362 542.599976 226.466675 546.06665 C 230.466675 550.200012 234.333313 563.133362 238.333313 585.666687 C 243.133362 613.133362 242.333313 611 247.400024 611 C 252.466675 611 257.799988 606.333313 260.333313 599.666687 C 263 592.866638 263.533325 567.799988 261.133362 553 C 256.599976 523.400024 250.333313 515.266663 227 509 C 220.06665 507.133362 209.533325 506.466675 173 505.666687 C 129.266663 504.733337 127.266663 504.466675 115.93335 501.133362 C 102.466675 497 89.533325 491.133362 79 484.466675 C 69.666687 478.466675 60.333313 471 60.333313 469.533325 C 60.333313 467.799988 67.533325 465.133362 83.133362 461.266663 C 122.06665 451.533325 167.400024 451.133362 205 459.93335 C 247.400024 469.799988 286.200012 489.400024 318.333313 517 C 333.666687 530.200012 341.799988 538.733337 357.133362 557.93335 C 364.06665 566.466675 370.200012 573.799988 370.866638 574.200012 C 371.533325 574.599976 373.533325 573.799988 375.400024 572.333313 C 384.733337 565 379.266663 541.666687 362.200012 515.666687 C 355.666687 505.533325 336.599976 485.266663 325 476.200012 C 289 447.799988 240.333313 427.533325 190.333313 420.200012 C 169.400024 417.133362 127.666687 417 105 419.799988 Z"/>
    </g>
</svg>
